<svg width="27" height="26" viewBox="0 0 27 26" fill="none" xmlns="http://www.w3.org/2000/svg">
                        <path d="M21.9886 13.2944L20.2815 15.0015L14.0121 21.2709C13.9364 21.3465 13.9192 21.4 13.9192 21.4801C13.9192 21.5544 13.934 21.6058 13.9967 21.6733C14.0607 21.7273 14.1222 21.75 14.2213 21.75C14.3276 21.75 14.3623 21.7252 14.3983 21.6892L22.8861 13.2015L23.5932 13.9086L22.8861 13.2015C22.9061 13.1814 22.9164 13.1674 22.921 13.1604C22.9234 13.1567 22.9245 13.1545 22.9249 13.1537C22.937 13.1196 22.9468 13.0736 22.9468 13.0084C22.9468 12.9431 22.937 12.8971 22.9249 12.8631L21.9886 13.2944ZM21.9886 13.2944H19.5743M21.9886 13.2944H19.5743M19.5743 13.2944H5.20302C5.09048 13.2944 5.04353 13.2672 4.99383 13.2175C4.94414 13.1678 4.91699 13.1209 4.91699 13.0084C4.91699 12.8958 4.94413 12.8489 4.99383 12.7992C5.04353 12.7495 5.09048 12.7223 5.20302 12.7223H19.5743H21.9886M19.5743 13.2944L21.9886 12.7223M21.9886 12.7223L20.2815 11.0152M21.9886 12.7223L20.2815 11.0152M20.2815 11.0152L13.9799 4.7137M20.2815 11.0152L13.9799 4.7137M13.9799 4.7137C13.9048 4.63854 13.9011 4.60077 13.9026 4.55183M13.9799 4.7137L13.9026 4.55183M13.9026 4.55183C13.9047 4.48386 13.9208 4.4243 13.9967 4.34334L13.9026 4.55183Z" fill="#5F6368" stroke="#BA8938" stroke-width="2"/>
                    </svg>