<svg width="32" height="32" viewBox="0 0 32 32" fill="none" xmlns="http://www.w3.org/2000/svg">
                                <path d="M15.9994 10.4443V3.17762C17.0138 3.56206 17.9471 4.15428 18.7382 4.94428L22.6094 8.81762C23.4005 9.60761 23.9927 10.5409 24.3771 11.5554H17.1105C16.4971 11.5554 15.9994 11.0565 15.9994 10.4443ZM17.4105 24.3109C16.5071 25.2143 15.9994 26.4387 15.9994 27.7165V29.3332H17.616C18.8938 29.3332 20.1182 28.8254 21.0216 27.9221L28.5849 20.3587C29.5816 19.3621 29.5816 17.7443 28.5849 16.7476C27.5882 15.7509 25.9705 15.7509 24.9738 16.7476L17.4105 24.3109ZM13.7771 27.7165C13.7771 25.8365 14.5094 24.0687 15.8382 22.7398L23.4016 15.1765C23.8338 14.7443 24.3371 14.4121 24.8805 14.1754C24.876 14.0421 24.8705 13.9098 24.8616 13.7765H17.1105C15.2727 13.7765 13.7771 12.2809 13.7771 10.4432V2.69317C13.5982 2.68095 13.4194 2.6665 13.2382 2.6665H8.22157C5.15824 2.6665 2.66602 5.15873 2.66602 8.22206V23.7776C2.66602 26.841 5.15824 29.3332 8.22157 29.3332H13.7771V27.7165Z" fill="#BA8938"/>
                            </svg>