<svg width="52" height="51" viewBox="0 0 52 51" fill="none" xmlns="http://www.w3.org/2000/svg">
<path d="M42.5511 0.486432C38.978 0.0466166 35.3644 0.0466161 31.7913 0.486432L22.3477 1.64885V16.8971C22.3477 25.9329 29.8427 31.5152 37.1712 33.0007C45.6656 31.1025 51.9947 25.9329 51.9947 16.8971V1.64885L42.5511 0.486432Z" fill="#E5D4A3"/>
<path fill-rule="evenodd" clip-rule="evenodd" d="M13.8024 17.8493C14.1743 17.4773 14.7773 17.4773 15.1493 17.8493L19.435 22.135C19.6136 22.3136 19.7139 22.5558 19.7139 22.8084C19.7139 23.061 19.6136 23.3032 19.435 23.4819L15.1493 27.7676C14.7773 28.1395 14.1743 28.1395 13.8024 27.7676C13.4305 27.3956 13.4305 26.7926 13.8024 26.4207L17.4147 22.8084L13.8024 19.1961C13.4305 18.8242 13.4305 18.2212 13.8024 17.8493ZM24.952 27.0941C24.952 26.5681 25.3784 26.1417 25.9044 26.1417H33.5234C34.0494 26.1417 34.4758 26.5681 34.4758 27.0941C34.4758 27.6201 34.0494 28.0465 33.5234 28.0465H25.9044C25.3784 28.0465 24.952 27.6201 24.952 27.0941ZM23.9996 35.6656C24.5256 35.6656 24.952 36.0919 24.952 36.6179V43.2846H31.6187C32.1447 43.2846 32.5711 43.711 32.5711 44.237C32.5711 44.763 32.1447 45.1894 31.6187 45.1894H16.3806C15.8546 45.1894 15.4282 44.763 15.4282 44.237C15.4282 43.711 15.8546 43.2846 16.3806 43.2846H23.0472V36.6179C23.0472 36.0919 23.4736 35.6656 23.9996 35.6656Z" fill="#6C4327"/>
<path fill-rule="evenodd" clip-rule="evenodd" d="M4 15.6667C4 11.9848 6.98477 9 10.6667 9H37.3333C41.0152 9 44 11.9848 44 15.6667V30.9048C44 34.5867 41.0152 37.5714 37.3333 37.5714H10.6667C6.98477 37.5714 4 34.5867 4 30.9048V15.6667ZM10.6667 10.9048C8.03674 10.9048 5.90476 13.0367 5.90476 15.6667V30.9048C5.90476 33.5347 8.03674 35.6667 10.6667 35.6667H37.3333C39.9633 35.6667 42.0952 33.5347 42.0952 30.9048V15.6667C42.0952 13.0367 39.9633 10.9048 37.3333 10.9048H10.6667Z" fill="#6C4327"/>
</svg>
