<svg width="52" height="51" viewBox="0 0 52 51" fill="none" xmlns="http://www.w3.org/2000/svg">
<path d="M42.5511 0.486433C38.978 0.0466166 35.3644 0.0466161 31.7913 0.486432L22.3477 1.64885V16.8971C22.3477 25.9329 29.8427 31.5152 37.1712 33.0007C45.6656 31.1025 51.9947 25.9329 51.9947 16.8971V1.64885L42.5511 0.486433Z" fill="#E5D4A3"/>
<path d="M8 19.8C8.44183 19.8 8.8 19.4418 8.8 19C8.8 18.5582 8.44183 18.2 8 18.2V19.8ZM4 18.2C3.55817 18.2 3.2 18.5582 3.2 19C3.2 19.4418 3.55817 19.8 4 19.8V18.2ZM44 19.8C44.4418 19.8 44.8 19.4418 44.8 19C44.8 18.5582 44.4418 18.2 44 18.2V19.8ZM40 18.2C39.5582 18.2 39.2 18.5582 39.2 19C39.2 19.4418 39.5582 19.8 40 19.8V18.2ZM8 27.8C8.44183 27.8 8.8 27.4418 8.8 27C8.8 26.5582 8.44183 26.2 8 26.2V27.8ZM4 26.2C3.55817 26.2 3.2 26.5582 3.2 27C3.2 27.4418 3.55817 27.8 4 27.8V26.2ZM44 27.8C44.4418 27.8 44.8 27.4418 44.8 27C44.8 26.5582 44.4418 26.2 44 26.2V27.8ZM40 26.2C39.5582 26.2 39.2 26.5582 39.2 27C39.2 27.4418 39.5582 27.8 40 27.8V26.2ZM8 35.8C8.44183 35.8 8.8 35.4418 8.8 35C8.8 34.5582 8.44183 34.2 8 34.2V35.8ZM4 34.2C3.55817 34.2 3.2 34.5582 3.2 35C3.2 35.4418 3.55817 35.8 4 35.8V34.2ZM44 35.8C44.4418 35.8 44.8 35.4418 44.8 35C44.8 34.5582 44.4418 34.2 44 34.2V35.8ZM40 34.2C39.5582 34.2 39.2 34.5582 39.2 35C39.2 35.4418 39.5582 35.8 40 35.8V34.2ZM16.8 7C16.8 6.55817 16.4418 6.2 16 6.2C15.5582 6.2 15.2 6.55817 15.2 7H16.8ZM15.2 11C15.2 11.4418 15.5582 11.8 16 11.8C16.4418 11.8 16.8 11.4418 16.8 11H15.2ZM16.8 43C16.8 42.5582 16.4418 42.2 16 42.2C15.5582 42.2 15.2 42.5582 15.2 43H16.8ZM15.2 47C15.2 47.4418 15.5582 47.8 16 47.8C16.4418 47.8 16.8 47.4418 16.8 47H15.2ZM24.8 7C24.8 6.55817 24.4418 6.2 24 6.2C23.5582 6.2 23.2 6.55817 23.2 7H24.8ZM23.2 11C23.2 11.4418 23.5582 11.8 24 11.8C24.4418 11.8 24.8 11.4418 24.8 11H23.2ZM24.8 43C24.8 42.5582 24.4418 42.2 24 42.2C23.5582 42.2 23.2 42.5582 23.2 43H24.8ZM23.2 47C23.2 47.4418 23.5582 47.8 24 47.8C24.4418 47.8 24.8 47.4418 24.8 47H23.2ZM32.8 7C32.8 6.55817 32.4418 6.2 32 6.2C31.5582 6.2 31.2 6.55817 31.2 7H32.8ZM31.2 11C31.2 11.4418 31.5582 11.8 32 11.8C32.4418 11.8 32.8 11.4418 32.8 11H31.2ZM32.8 43C32.8 42.5582 32.4418 42.2 32 42.2C31.5582 42.2 31.2 42.5582 31.2 43H32.8ZM31.2 47C31.2 47.4418 31.5582 47.8 32 47.8C32.4418 47.8 32.8 47.4418 32.8 47H31.2ZM8 18.2H4V19.8H8V18.2ZM44 18.2H40V19.8H44V18.2ZM8 26.2H4V27.8H8V26.2ZM44 26.2H40V27.8H44V26.2ZM8 34.2H4V35.8H8V34.2ZM44 34.2H40V35.8H44V34.2ZM15.2 7V11H16.8V7H15.2ZM15.2 43V47H16.8V43H15.2ZM23.2 7V11H24.8V7H23.2ZM23.2 43V47H24.8V43H23.2ZM31.2 7V11H32.8V7H31.2ZM31.2 43V47H32.8V43H31.2ZM20 19.8H28V18.2H20V19.8ZM31.2 23V31H32.8V23H31.2ZM28 34.2H20V35.8H28V34.2ZM16.8 31V23H15.2V31H16.8ZM20 34.2C18.2327 34.2 16.8 32.7673 16.8 31H15.2C15.2 33.651 17.349 35.8 20 35.8V34.2ZM31.2 31C31.2 32.7673 29.7673 34.2 28 34.2V35.8C30.651 35.8 32.8 33.651 32.8 31H31.2ZM28 19.8C29.7673 19.8 31.2 21.2327 31.2 23H32.8C32.8 20.349 30.651 18.2 28 18.2V19.8ZM20 18.2C17.349 18.2 15.2 20.349 15.2 23H16.8C16.8 21.2327 18.2327 19.8 20 19.8V18.2Z" fill="#6C4327"/>
<path d="M12.8284 12.1716L9.17157 15.8284C8.42143 16.5786 8 17.596 8 18.6569V35.3431C8 36.404 8.42143 37.4214 9.17157 38.1716L12.8284 41.8284C13.5786 42.5786 14.596 43 15.6569 43H32.3431C33.404 43 34.4214 42.5786 35.1716 41.8284L38.8284 38.1716C39.5786 37.4214 40 36.404 40 35.3431V18.6569C40 17.596 39.5786 16.5786 38.8284 15.8284L35.1716 12.1716C34.4214 11.4214 33.404 11 32.3431 11H15.6569C14.596 11 13.5786 11.4214 12.8284 12.1716Z" stroke="#6C4327" stroke-width="1.6" stroke-linecap="round" stroke-linejoin="round"/>
</svg>
