<svg width="33" height="32" viewBox="0 0 33 32" fill="none" xmlns="http://www.w3.org/2000/svg">
                                <path d="M8.09212 28.4415C8.74036 28.4415 9.36204 28.184 9.8204 27.7257C10.2788 27.2673 10.5363 26.6456 10.5363 25.9974V18.6649C10.5363 18.0167 10.2788 17.395 9.8204 16.9366C9.36204 16.4783 8.74036 16.2208 8.09212 16.2208V14.9987C8.09213 12.7299 8.9934 10.554 10.5977 8.94972C12.202 7.34543 14.3779 6.44415 16.6467 6.44415C18.9155 6.44415 21.0914 7.34543 22.6956 8.94972C24.2999 10.554 25.2012 12.7299 25.2012 14.9987V16.2208C24.553 16.2208 23.9313 16.4783 23.4729 16.9366C23.0146 17.395 22.7571 18.0167 22.7571 18.6649V25.9974H19.0908C18.7667 25.9974 18.4559 26.1261 18.2267 26.3553C17.9975 26.5845 17.8687 26.8954 17.8687 27.2195C17.8687 27.5436 17.9975 27.8544 18.2267 28.0836C18.4559 28.3128 18.7667 28.4415 19.0908 28.4415H25.2012C26.6017 28.4374 27.9583 27.9522 29.0438 27.0673C30.1293 26.1823 30.8779 24.9514 31.1643 23.5804C31.4506 22.2095 31.2573 20.7818 30.6167 19.5363C29.9761 18.2909 28.9271 17.3033 27.6454 16.7389V14.9987C27.6454 12.0817 26.4866 9.2841 24.4239 7.22144C22.3613 5.15879 19.5637 4 16.6467 4C13.7296 4 10.9321 5.15879 8.86941 7.22144C6.80676 9.2841 5.64797 12.0817 5.64797 14.9987V16.7389C4.36621 17.3033 3.31723 18.2909 2.67664 19.5363C2.03605 20.7818 1.84274 22.2095 2.12907 23.5804C2.4154 24.9514 3.16399 26.1823 4.24951 27.0673C5.33504 27.9522 6.69161 28.4374 8.09212 28.4415Z" fill="#BA8938"/>
                            </svg>