<svg width="16" height="16" viewBox="0 0 16 16" fill="none" xmlns="http://www.w3.org/2000/svg">
<path d="M1.33203 2.99967C1.33203 2.0792 2.07822 1.33301 2.9987 1.33301H4.66536C5.58584 1.33301 6.33203 2.0792 6.33203 2.99967V4.66634C6.33203 5.58682 5.58584 6.33301 4.66536 6.33301H2.9987C2.07822 6.33301 1.33203 5.58682 1.33203 4.66634V2.99967Z" stroke="#BA8938" stroke-width="2" stroke-linecap="round" stroke-linejoin="round"/>
<path d="M9.66536 2.99967C9.66536 2.0792 10.4116 1.33301 11.332 1.33301H12.9987C13.9192 1.33301 14.6654 2.0792 14.6654 2.99967V4.66634C14.6654 5.58682 13.9192 6.33301 12.9987 6.33301H11.332C10.4116 6.33301 9.66536 5.58682 9.66536 4.66634V2.99967Z" stroke="#BA8938" stroke-width="2" stroke-linecap="round" stroke-linejoin="round"/>
<path d="M1.33203 11.333C1.33203 10.4125 2.07822 9.66634 2.9987 9.66634H4.66536C5.58584 9.66634 6.33203 10.4125 6.33203 11.333V12.9997C6.33203 13.9201 5.58584 14.6663 4.66536 14.6663H2.9987C2.07822 14.6663 1.33203 13.9201 1.33203 12.9997V11.333Z" stroke="#BA8938" stroke-width="2" stroke-linecap="round" stroke-linejoin="round"/>
<path d="M9.66536 11.333C9.66536 10.4125 10.4116 9.66634 11.332 9.66634H12.9987C13.9192 9.66634 14.6654 10.4125 14.6654 11.333V12.9997C14.6654 13.9201 13.9192 14.6663 12.9987 14.6663H11.332C10.4116 14.6663 9.66536 13.9201 9.66536 12.9997V11.333Z" stroke="#BA8938" stroke-width="2" stroke-linecap="round" stroke-linejoin="round"/>
</svg>
