<svg width="52" height="51" viewBox="0 0 52 51" fill="none" xmlns="http://www.w3.org/2000/svg">
<path d="M42.5511 0.486432C38.978 0.0466166 35.3644 0.0466161 31.7913 0.486432L22.3477 1.64885V16.8971C22.3477 25.9329 29.8427 31.5152 37.1712 33.0007C45.6656 31.1025 51.9947 25.9329 51.9947 16.8971V1.64885L42.5511 0.486432Z" fill="#E5D4A3"/>
<path d="M12 17.7692H15.8889L16.8611 16.2308L18.6111 19L20.5556 15L21.7222 17.7692H26" stroke="#6C4327" stroke-width="0.96" stroke-linecap="round" stroke-linejoin="round"/>
<path d="M12 22.9684H15.8889L16.8611 21.43L18.6111 24.1992L20.5556 20.1992L21.7222 22.9684H26" stroke="#6C4327" stroke-width="0.96" stroke-linecap="round" stroke-linejoin="round"/>
<path d="M44 19.6296V20.4922M32 23C35.3137 23 38 25.6863 38 29V36C38 37.6569 39.3431 39 41 39C42.6569 39 44 37.6569 44 36V20.4922M38 13L41 15L43.1094 16.4063C43.6658 16.7772 44 17.4017 44 18.0704V20.4922" stroke="#6C4327" stroke-width="1.6" stroke-linecap="round" stroke-linejoin="round"/>
<path d="M19 33V33.02M19 40V40.02M12.5 33V33.02M12.5 40V40.02M25.5 33V33.02M25.5 40V40.02M11.5714 47H26.4286C29.5056 47 32 44.3137 32 41V13C32 9.68629 29.5056 7 26.4286 7H11.5714C8.49441 7 6 9.68629 6 13V41C6 44.3137 8.49441 47 11.5714 47ZM13.4286 13H24.5714C25.5971 13 26.4286 13.8954 26.4286 15V23C26.4286 24.1046 25.5971 25 24.5714 25H13.4286C12.4029 25 11.5714 24.1046 11.5714 23V15C11.5714 13.8954 12.4029 13 13.4286 13ZM19.4643 33C19.4643 33.2761 19.2564 33.5 19 33.5C18.7436 33.5 18.5357 33.2761 18.5357 33C18.5357 32.7239 18.7436 32.5 19 32.5C19.2564 32.5 19.4643 32.7239 19.4643 33ZM19.4643 40C19.4643 40.2761 19.2564 40.5 19 40.5C18.7436 40.5 18.5357 40.2761 18.5357 40C18.5357 39.7239 18.7436 39.5 19 39.5C19.2564 39.5 19.4643 39.7239 19.4643 40ZM12.9643 33C12.9643 33.2761 12.7564 33.5 12.5 33.5C12.2436 33.5 12.0357 33.2761 12.0357 33C12.0357 32.7239 12.2436 32.5 12.5 32.5C12.7564 32.5 12.9643 32.7239 12.9643 33ZM12.9643 40C12.9643 40.2761 12.7564 40.5 12.5 40.5C12.2436 40.5 12.0357 40.2761 12.0357 40C12.0357 39.7239 12.2436 39.5 12.5 39.5C12.7564 39.5 12.9643 39.7239 12.9643 40ZM25.9643 33C25.9643 33.2761 25.7564 33.5 25.5 33.5C25.2436 33.5 25.0357 33.2761 25.0357 33C25.0357 32.7239 25.2436 32.5 25.5 32.5C25.7564 32.5 25.9643 32.7239 25.9643 33ZM25.9643 40C25.9643 40.2761 25.7564 40.5 25.5 40.5C25.2436 40.5 25.0357 40.2761 25.0357 40C25.0357 39.7239 25.2436 39.5 25.5 39.5C25.7564 39.5 25.9643 39.7239 25.9643 40Z" stroke="#6C4327" stroke-width="1.6" stroke-linecap="round" stroke-linejoin="round"/>
</svg>
