<?xml version="1.0" encoding="utf-8"?>
<!-- Generator: Adobe Illustrator 23.0.2, SVG Export Plug-In . SVG Version: 6.00 Build 0)  -->
<svg version="1.1" id="Layer_1" xmlns="http://www.w3.org/2000/svg" xmlns:xlink="http://www.w3.org/1999/xlink" x="0px" y="0px"
	 viewBox="0 0 50 50" style="enable-background:new 0 0 50 50;" xml:space="preserve">
<style type="text/css">
	.st0{clip-path:url(#SVGID_2_);}
	.st1{fill:#E5D4A3;}
	.st2{fill-rule:evenodd;clip-rule:evenodd;fill:#6C4327;}
</style>
<g>
	<defs>
		<rect id="SVGID_1_" y="0" width="50" height="50"/>
	</defs>
	<clipPath id="SVGID_2_">
		<use xlink:href="#SVGID_1_"  style="overflow:visible;"/>
	</clipPath>
	<g id="civil-engineering" class="st0">
		<g id="Group_2" transform="translate(-1.421)">
			<g id="information-technology" transform="translate(-3 1.843)">
				<path id="Path_1" class="st1" d="M42.6,0.5C39,0,35.4,0,31.8,0.5l-9.4,1.2v15.3c0,9,7.5,14.6,14.8,16.1
					C45.7,31.1,52,25.9,52,16.9V1.6L42.6,0.5z"/>
			</g>
		</g>
	</g>
</g>
<g>
	<path class="st2" d="M39.4,34.1c-0.4,0.4-1.1,0.4-1.5,0c-0.4-0.4-0.4-1.1,0-1.5c0.6-0.6,1.8-0.2,1.8,0.7
		C39.7,33.6,39.6,33.9,39.4,34.1z M37,31.7c-0.9,0.9-0.9,2.4,0,3.3c0.9,0.9,2.4,0.9,3.3,0c0.9-0.9,0.9-2.3,0-3.3
		C39.4,30.8,37.9,30.8,37,31.7z M41.5,36.2c0.8-0.8,1.2-1.8,1.2-2.9c0-2.8-2.8-4.8-5.4-3.8c-0.2,0.1-0.5,0-0.7-0.1L35.3,28
		c-0.1,0.2-1.7,1.7-1.9,2l1.3,1.3c0.2,0.2,0.2,0.4,0.1,0.7c-0.5,1.5-0.2,3.1,0.9,4.2C37.4,37.8,40,37.8,41.5,36.2L41.5,36.2z
		 M29.3,31.4c-0.4,0.1-1.1,0.3-1.8,0.4c-1.8,0.4-3,0.6-3.6,1.3l-7.4,8.7c-2.5-0.2-4.7-2-5.3-4.5l6.7-8.2c1.6-1.9,2.6-3.3,2.5-4.3
		c-0.1-1.5,0.4-2.8,1.4-3.8l2.2-2.2c1-1,1.4-0.7,1.6-0.5l4.3,4.3c-0.4,0.4-0.9,0.6-1.3,0.6c-0.9,0-1.9-0.6-3.2-1.9
		c-0.5-0.5-1.2,0-1.1,0.6c0.8,2.6,0.4,4.6-1.2,6.2c-0.4,0.4-0.1,1.1,0.4,1.1c0.2,0,0.3-0.1,0.4-0.2c1.5-1.5,2.1-3.4,1.9-5.5
		c1,0.7,1.9,1,2.9,1c-0.3,1.9,1.8,3.3,3.5,2.3c0.2,0.6,0.7,1.1,1.3,1.3L31.6,30C30.9,30.7,30.2,31.1,29.3,31.4L29.3,31.4z M23,36.1
		l-4.7,5.5C20.9,41.1,22.9,38.8,23,36.1L23,36.1z M15.6,30c-2.6,0.6-4.4,2.9-4.5,5.6L15.6,30z M28.7,34.6L28.3,33
		c-1,0.2-3.1,0.6-3.4,1l-0.7,0.8c0.3,2.3-0.4,4.6-2.1,6.2c-2.8,2.8-7.4,2.8-10.3,0c-2.8-2.8-2.8-7.4,0-10.3c1.3-1.3,3-2,4.8-2.1
		c0.9-1,2.5-3,2.4-3.7c0-0.2,0-0.4,0-0.6l-0.9-0.2l-1.6,2.5c-0.1,0.2-0.3,0.3-0.5,0.3c-1,0.1-2,0.4-2.9,0.8c-0.2,0.1-0.4,0.1-0.5,0
		l-2.6-1.3l-2.7,2.7l1.3,2.6c0.1,0.2,0.1,0.4,0,0.5c-0.4,0.9-0.7,1.9-0.8,2.9c0,0.2-0.1,0.4-0.3,0.5L5.3,37l1,3.6l2.9,0.2
		c0.2,0,0.4,0.1,0.5,0.3c0.6,0.8,1.3,1.5,2.1,2.1c0.2,0.1,0.2,0.3,0.3,0.5l0.2,2.9l3.6,1l1.6-2.5c0.1-0.2,0.3-0.3,0.5-0.3
		c1-0.1,2-0.4,2.9-0.8c0.2-0.1,0.4-0.1,0.5,0l2.6,1.3l2.7-2.7l-1.3-2.6c-0.1-0.2-0.1-0.4,0-0.5c0.4-0.9,0.7-1.9,0.8-2.9
		c0-0.2,0.1-0.4,0.3-0.5L28.7,34.6z M21.1,17.7l1.1,1.1l0.9-0.9c0.4-0.4,0.8-0.7,1.2-0.9l-1.3-1.3c-0.5-0.5-0.7-1.1-0.6-1.8l0.3-2.6
		c0-0.3-0.1-0.6-0.3-0.8l-1.8-1.8c-0.2-0.2-0.4-0.3-0.7-0.3l-2.2,0.1l2.4,2.4c0.1,0.1,0.2,0.3,0.2,0.5l-0.1,2.8
		c0,0.3-0.3,0.6-0.6,0.6L16.8,15c-0.2,0-0.3-0.1-0.5-0.2L14,12.4l-0.1,2.2c0,0.3,0.1,0.5,0.3,0.7l1.8,1.8c0.2,0.2,0.5,0.3,0.8,0.3
		l2.6-0.3C20,17,20.6,17.2,21.1,17.7L21.1,17.7z M28.6,16l-1.8,1.8l1.5,1.5l1.8-1.8c0.4-0.4,0.4-1.1,0-1.5
		C29.7,15.6,29,15.6,28.6,16L28.6,16z M32.5,18.4c-0.4-0.4-1.1-0.4-1.5,0l-1.8,1.8l1.5,1.5l1.8-1.8C33,19.5,33,18.8,32.5,18.4
		L32.5,18.4z M33.4,20.8l-2.3,2.3l0,0c-0.1,0.1-0.1,0.1-0.2,0.2L30.2,24c-0.4,0.4-0.3,1.1,0.1,1.5c0.4,0.4,1.1,0.4,1.5,0l0.9-0.9v0
		l2.2-2.2c0.4-0.4,0.4-1.1,0-1.5S33.8,20.4,33.4,20.8z M36.8,24.8c0.3-0.3,0.3-0.9,0-1.3c-0.4-0.3-0.9-0.3-1.3,0l-1.9,1.9
		c-0.3,0.3-0.3,0.9,0,1.2c0,0,0,0,0,0l0.1,0.1c0.3,0.3,0.9,0.3,1.2,0L36.8,24.8z M42.4,29.6c-1.3-1.4-3.3-1.9-5.2-1.4l-1-1l1.4-1.4
		c1.3-1.3,0.5-3.4-1.2-3.6c0.3-1.5-0.8-2.9-2.4-2.8c0,0,0-0.1,0-0.1c0-1.3-1.1-2.4-2.4-2.3c0-0.6-0.2-1.3-0.7-1.7
		c-0.9-0.9-2.4-0.9-3.3,0l-1.8,1.8l-2-2c-0.2-0.2-0.3-0.5-0.3-0.8l0.3-2.6c0.1-0.7-0.1-1.3-0.6-1.8l-1.8-1.8c-0.4-0.4-1-0.7-1.6-0.6
		l-3.7,0.1c-0.5,0-0.8,0.7-0.4,1.1l3.2,3.2l-0.1,2l-2,0.1l-3.2-3.2c-0.4-0.4-1.1-0.1-1.1,0.4l-0.1,3.7c0,0.6,0.2,1.2,0.6,1.6L15,18
		c0.5,0.5,1.1,0.7,1.8,0.6l2.6-0.3c0.3,0,0.6,0.1,0.8,0.3l1.1,1.1L21,20.1c-0.9,0.9-1.4,1.9-1.7,3l-1-0.3c-0.4-0.1-0.8,0.1-1,0.4
		l-1.6,2.4c-0.9,0.1-1.8,0.4-2.7,0.7L10.5,25c-0.3-0.2-0.8-0.1-1,0.2l-3,3c-0.3,0.3-0.3,0.7-0.2,1l1.3,2.6c-0.4,0.9-0.6,1.7-0.7,2.7
		l-2.4,1.6c-0.3,0.2-0.5,0.6-0.4,1l1.1,4.1c0.1,0.4,0.4,0.6,0.8,0.7L8.9,42c0.6,0.7,1.2,1.4,2,2l0.1,2.9c0,0.4,0.3,0.7,0.7,0.8
		l4.1,1.1c0.4,0.1,0.8,0,1-0.4l1.6-2.4c0.9-0.1,1.8-0.4,2.7-0.7l2.6,1.3c0.4,0.2,0.8,0.1,1.1-0.2l3-3c0.3-0.3,0.3-0.7,0.2-1
		l-1.3-2.6c0.4-0.9,0.6-1.7,0.7-2.7l2.4-1.6c0.3-0.2,0.5-0.6,0.4-1l-0.5-1.8c0.1,0,0.1,0,0.2-0.1c1.1-0.4,1.9-0.9,2.7-1.7l0,0l1,1
		c-0.5,1.8,0,3.8,1.4,5.2c2.1,2.1,5.4,2.1,7.5,0C44.5,35,44.5,31.6,42.4,29.6L42.4,29.6z"/>
</g>
</svg>
