<svg width="33" height="32" viewBox="0 0 33 32" fill="none" xmlns="http://www.w3.org/2000/svg">
                            <path d="M21.8315 4.94419C20.3637 3.47536 18.4105 2.6665 16.3328 2.6665C14.2551 2.6665 12.3019 3.47536 10.833 4.94419C7.80093 7.97628 7.80093 12.9105 10.8419 15.9515L13.614 18.6625C14.364 19.3958 15.3484 19.7625 16.3328 19.7625C17.3172 19.7625 18.3016 19.3958 19.0516 18.6625L21.8315 15.9426C23.3003 14.4738 24.1102 12.5205 24.1102 10.4428C24.1102 8.36516 23.3003 6.41413 21.8315 4.94419ZM16.3328 13.766C14.4918 13.766 12.9996 12.2739 12.9996 10.4328C12.9996 8.59181 14.4918 7.09965 16.3328 7.09965C18.1738 7.09965 19.666 8.59181 19.666 10.4328C19.666 12.2739 18.1738 13.766 16.3328 13.766ZM29.6656 21.2902C29.6678 21.6835 29.4622 22.0479 29.1267 22.249L18.1705 28.8232C17.6039 29.1632 16.9683 29.3332 16.3339 29.3332C15.6995 29.3332 15.0628 29.1632 14.4973 28.8232L3.53888 22.249C3.20223 22.0468 2.9978 21.6824 3.00002 21.2902C3.00224 20.898 3.21112 20.5358 3.55 20.338L8.94421 17.1803C9.05532 17.3026 9.16976 17.4237 9.28753 17.5414L12.0596 20.2513C13.2018 21.3691 14.7206 21.9857 16.3328 21.9857C17.945 21.9857 19.4627 21.3691 20.606 20.2513L23.4036 17.5148C23.5125 17.4059 23.6192 17.2937 23.7225 17.1803L29.1156 20.3369C29.4545 20.5358 29.6633 20.8991 29.6656 21.2902Z" fill="#BA8938"/>
                        </svg>