<svg xmlns="http://www.w3.org/2000/svg" xmlns:xlink="http://www.w3.org/1999/xlink" width="50" height="50" viewBox="0 0 50 50">
  <defs>
    <clipPath id="clip-civil-engineering">
      <rect width="50" height="50"/>
    </clipPath>
  </defs>
  <g id="civil-engineering" clip-path="url(#clip-civil-engineering)">
    <g id="Group_2" data-name="Group 2" transform="translate(-1.421)">
      <g id="information-technology" transform="translate(-3 1.843)">
        <path id="Path_1" data-name="Path 1" d="M42.551.486a44.037,44.037,0,0,0-10.76,0L22.348,1.649V16.9c0,9.036,7.495,14.618,14.823,16.1,8.494-1.9,14.824-7.068,14.824-16.1V1.649Z" fill="#e5d4a3"/>
      </g>
      <g id="Group_1" data-name="Group 1" transform="translate(-53.835 -16.15)">
        <path id="Path_4" data-name="Path 4" d="M85.142,31.178a.616.616,0,0,1,.616-.616h4.235a.616.616,0,0,1,.616.616v4.235a.616.616,0,0,1-1.232,0V31.794H85.758A.616.616,0,0,1,85.142,31.178ZM58.55,35.413V31.178a.616.616,0,0,1,.616-.616H63.4a.616.616,0,1,1,0,1.233H59.783v3.619a.616.616,0,0,1-1.232,0Zm32.122,13.5-3.1,1.006a.616.616,0,0,0-.406.433,12.9,12.9,0,0,1-1.4,3.365.616.616,0,0,0-.019.593l1.48,2.9-2.549,2.548-2.9-1.479a.616.616,0,0,0-.593.019,12.917,12.917,0,0,1-3.365,1.4.617.617,0,0,0-.433.407l-1.007,3.1h-3.6l-1.007-3.1a.615.615,0,0,0-.433-.406,12.941,12.941,0,0,1-3.365-1.4.614.614,0,0,0-.594-.019l-2.9,1.48-2.549-2.548,1.48-2.9a.616.616,0,0,0-.019-.593,12.908,12.908,0,0,1-1.4-3.365.616.616,0,0,0-.406-.433l-3.1-1.006V47.73h5.985a10.125,10.125,0,0,0,20.213,0h5.985ZM61.578,40.228V46.5h1.94V43.223a1.348,1.348,0,0,1,1.346-1.347h2.725a1.348,1.348,0,0,1,1.346,1.347V46.5h1.94V40.228l-4.649-4.759ZM75.865,27.8v2.531L69.718,32.96V30.428Zm4.9,4.961L77.1,30.4V28l3.671,2.36Zm-8.66,12.127,3.758-1.6V46.5H72.108Zm3.758-9.347v2.531l-3.821,1.632a.617.617,0,0,0-.113-.161l-1.6-1.638Zm0-1.34-6.147,2.627V34.3l6.147-2.626Zm4.9,2.43V34.229L77.1,31.869v2.406Zm0,7.741L77.1,42.016V39.611l3.671,2.36Zm0-3.871-3.706-2.383H77.1V35.739l3.671,2.36Zm-8.661.515v2.53l3.758-1.605v-2.53ZM77.1,46.5h3.671v-.656L77.1,43.482Zm6.353,1.232H65.709a8.892,8.892,0,0,0,17.742,0ZM67.7,46.5H64.75V43.223a.116.116,0,0,1,.114-.114h2.725a.116.116,0,0,1,.114.114ZM86.7,35.8H82V46.5h5.092V36.2A.4.4,0,0,0,86.7,35.8Zm4.592,10.7H88.325V36.2A1.631,1.631,0,0,0,86.7,34.566H82V30.021a.617.617,0,0,0-.283-.519L77.1,26.533V24.387a.616.616,0,1,0-1.232,0v2.076L68.86,29.455a.617.617,0,0,0-.374.567v6l-1.818-1.862a.617.617,0,0,0-.881,0l-5.265,5.39a.616.616,0,0,0-.175.43V46.5H57.872a.616.616,0,0,0-.616.616v2.25a.616.616,0,0,0,.426.586l3.206,1.041a14.134,14.134,0,0,0,1.269,3.06l-1.531,3.005a.617.617,0,0,0,.113.716l3.182,3.181a.615.615,0,0,0,.715.114l3.005-1.531A14.086,14.086,0,0,0,70.7,60.805l1.042,3.207a.616.616,0,0,0,.586.426h4.5a.616.616,0,0,0,.586-.426l1.042-3.207a14.138,14.138,0,0,0,3.06-1.269l3.005,1.531a.615.615,0,0,0,.715-.114l3.182-3.181a.617.617,0,0,0,.113-.716L87,54.051a14.139,14.139,0,0,0,1.269-3.06l3.206-1.041a.616.616,0,0,0,.426-.586v-2.25a.617.617,0,0,0-.616-.616Z" transform="translate(0 0)" fill="#6c4327" fill-rule="evenodd"/>
      </g>
    </g>
  </g>
</svg>
