<svg width="82" height="78" viewBox="0 0 82 78" fill="none" xmlns="http://www.w3.org/2000/svg">
                <path d="M69.008 46.8723C69.4494 45.4353 69.7821 43.9514 69.9985 42.4307L73.3783 41.7109C79.2504 40.4603 83.0104 34.6654 81.7598 28.7932L80.2208 21.5673L73.872 22.9195C71.4984 23.425 69.4098 24.6785 67.8629 26.4965C67.3381 25.2743 66.7337 24.0884 66.0512 22.9495L68.1512 20.3004C69.9579 18.0213 70.769 15.1749 70.435 12.2857C70.101 9.39655 68.6618 6.81046 66.3825 5.00371L60.593 0.414223L56.5606 5.50086C54.7538 7.78 53.9428 10.6264 54.2768 13.5156C54.6041 16.3457 55.9938 18.8831 58.1926 20.6839C62.8179 25.2478 65.4698 31.6563 65.4698 38.28C65.4698 51.7861 54.4818 62.7739 40.9759 62.7739C27.47 62.7739 16.4822 51.7857 16.4822 38.2799C16.4822 31.5701 19.1997 25.1632 23.9663 20.5509C26.073 18.7591 27.4036 16.2766 27.7228 13.5154C28.0569 10.6262 27.2459 7.78 25.439 5.5007L21.4066 0.414062L15.6172 5.00354C10.9123 8.73314 10.1189 15.5952 13.8485 20.3001L15.9415 22.9404C15.2536 24.0749 14.6444 25.2549 14.1156 26.4709C12.5708 24.6666 10.4902 23.4224 8.12776 22.9193L1.77912 21.5671L0.240072 28.7932C-1.01052 34.6654 2.7493 40.4603 8.62154 41.7109L11.9524 42.4203C12.1685 43.9418 12.5007 45.4263 12.9419 46.8639C10.6576 46.5081 8.24417 46.8699 6.06278 48.0605L0.365003 51.1701L3.90455 57.6551C5.29792 60.208 7.60199 62.0656 10.3924 62.8855C11.4092 63.1842 12.446 63.3321 13.4771 63.3321C15.2757 63.3321 17.0559 62.8818 18.6786 61.9962L21.698 60.3483C22.6607 61.1905 23.679 61.9704 24.7463 62.6825C22.6773 63.8852 21.0701 65.724 20.1525 67.9769L17.704 73.9887L24.5463 76.7753C25.8728 77.3155 27.2637 77.5855 28.6542 77.5855C30.0871 77.5855 31.5194 77.2988 32.8798 76.7259C35.5601 75.5971 37.6406 73.4919 38.7376 70.7982L40.0477 67.5814C40.3562 67.591 40.6654 67.5976 40.9762 67.5976C41.3028 67.5976 41.6276 67.5902 41.9517 67.5796L43.2626 70.7984C44.3597 73.4921 46.4399 75.5972 49.1204 76.7261C50.4808 77.299 51.9129 77.5857 53.346 77.5857C54.7363 77.5857 56.1274 77.3157 57.4539 76.7755L64.2962 73.9889L61.8477 67.9771C60.9264 65.715 59.3097 63.8704 57.2285 62.6681C58.2945 61.9553 59.3112 61.1747 60.2728 60.3323L63.3217 61.9963C64.9445 62.8821 66.7245 63.3323 68.5231 63.3323C69.5539 63.3323 70.5911 63.1844 71.6078 62.8856C74.3982 62.0658 76.7023 60.2082 78.0957 57.6552L81.635 51.1703L75.9373 48.0605C73.74 46.861 71.3071 46.5031 69.008 46.8723ZM34.2702 68.9786C33.6592 70.4789 32.5004 71.6515 31.0075 72.2804C29.5144 72.909 27.866 72.919 26.3657 72.3079L23.9908 71.3406L24.6198 69.7962C25.2308 68.2959 26.3895 67.1233 27.8824 66.4945C29.3753 65.8656 31.0237 65.8557 32.5242 66.467L34.8992 67.4343L34.2702 68.9786ZM58.0093 71.3407L55.6343 72.308C54.1339 72.919 52.4855 72.9094 50.9926 72.2805C49.4995 71.6517 48.3409 70.4791 47.7299 68.9788L47.1009 67.4344L49.4759 66.4671C50.9762 65.8561 52.6245 65.8658 54.1176 66.4946C55.6105 67.1235 56.7693 68.2961 57.3803 69.7964L58.0093 71.3407ZM71.0526 30.2677C71.9343 28.9088 73.2925 27.9744 74.8769 27.6371L76.5079 27.2896L77.0422 29.7979C77.3797 31.3823 77.0798 33.0033 76.1981 34.3623C75.3163 35.7214 73.9581 36.6556 72.3738 36.9931L70.7427 37.3405L70.2086 34.8323C69.8711 33.2477 70.1708 31.6267 71.0526 30.2677ZM60.3407 8.49727L61.3766 7.19056L63.3863 8.78363C64.6559 9.78999 65.4574 11.2305 65.6436 12.8396C65.8296 14.4489 65.378 16.0343 64.3716 17.3037L63.3356 18.6106L61.3261 17.0175C58.7052 14.94 58.2633 11.1178 60.3407 8.49727ZM16.3566 12.8395C16.5427 11.2303 17.3444 9.78983 18.6139 8.78347L20.6236 7.1904L21.6594 8.49711C23.5456 10.8763 23.3547 14.2457 21.3425 16.4009C21.1354 16.5879 20.9315 16.7779 20.7303 16.9704C20.7114 16.9858 20.6934 17.0021 20.6742 17.0172L18.6646 18.6102L17.6288 17.3034C16.6223 16.0341 16.1705 14.4488 16.3566 12.8395ZM9.62629 36.9929C8.0419 36.6554 6.68374 35.7213 5.80199 34.3621C4.92024 33.0032 4.62037 31.3821 4.95786 29.7977L5.49215 27.2895L7.12317 27.6369C8.70756 27.9744 10.0659 28.9086 10.9476 30.2676C11.8294 31.6265 12.1291 33.2476 11.7918 34.8321L11.2576 37.3404L9.62629 36.9929ZM16.3676 57.7622C14.9456 58.5383 13.3067 58.7142 11.7522 58.2575C10.1979 57.8009 8.91465 56.7663 8.13837 55.3443L6.90981 53.0933L8.3736 52.2943C9.79576 51.5184 11.4347 51.3425 12.989 51.7989C14.5433 52.2556 15.8265 53.2902 16.6028 54.7122L17.8314 56.9632L16.3676 57.7622ZM73.8615 55.3443C73.0854 56.7663 71.802 57.8008 70.2477 58.2575C68.6934 58.7143 67.0545 58.5383 65.6323 57.7622L64.1685 56.9632L65.3971 54.7122C66.1732 53.2902 67.4566 52.2557 69.0109 51.7989C70.5654 51.3421 72.2043 51.5182 73.6263 52.2943L75.0901 53.0933L73.8615 55.3443Z" fill="#6C4327"/>
                <path d="M30.8123 41.6813L29.5815 54.088L41.0005 49.0829L52.4197 54.0874L51.1881 41.6806L59.4765 32.3668L47.2963 29.7041L40.9995 18.9434L34.7033 29.7045L22.5234 32.3677L30.8123 41.6813ZM37.7991 33.9653L40.9997 28.4947L44.2008 33.9651L50.3927 35.3186L46.1791 40.0533L46.8052 46.3605L41.0002 43.8163L35.1952 46.3608L35.8209 40.0536L31.6072 35.3191L37.7991 33.9653Z" fill="#6C4327"/>
            </svg>