<svg width="16" height="149" viewBox="0 0 16 149" fill="none" xmlns="http://www.w3.org/2000/svg">
                <path d="M9 1C9 0.447715 8.55228 -2.41411e-08 8 0C7.44772 2.41411e-08 7 0.447715 7 1L9 1ZM7.2929 148.707C7.68342 149.098 8.31659 149.098 8.70711 148.707L15.0711 142.343C15.4616 141.953 15.4616 141.319 15.0711 140.929C14.6805 140.538 14.0474 140.538 13.6569 140.929L8.00001 146.586L2.34315 140.929C1.95263 140.538 1.31946 140.538 0.928938 140.929C0.538414 141.319 0.538414 141.953 0.928938 142.343L7.2929 148.707ZM7 1L7 3.04167L9 3.04167L9 1L7 1ZM7 7.125L7 11.2083L9 11.2083L9 7.125L7 7.125ZM7 15.2917L7 19.375L9 19.375L9 15.2917L7 15.2917ZM7 23.4583L7 27.5417L9 27.5417L9 23.4583L7 23.4583ZM7 31.625L7 35.7083L9 35.7083L9 31.625L7 31.625ZM7 39.7917L7 43.875L9 43.875L9 39.7917L7 39.7917ZM7 47.9583L7 52.0417L9 52.0417L9 47.9583L7 47.9583ZM7 56.125L7 60.2083L9 60.2083L9 56.125L7 56.125ZM7 64.2917L7 68.375L9 68.375L9 64.2917L7 64.2917ZM7 72.4583L7 76.5417L9 76.5417L9 72.4583L7 72.4583ZM7 80.625L7 84.7083L9 84.7083L9 80.625L7 80.625ZM7 88.7917L7 92.875L9 92.875L9 88.7917L7 88.7917ZM7 96.9583L7 101.042L9 101.042L9 96.9583L7 96.9583ZM7 105.125L7 109.208L9 109.208L9 105.125L7 105.125ZM7 113.292L7.00001 117.375L9.00001 117.375L9 113.292L7 113.292ZM7.00001 121.458L7.00001 125.542L9.00001 125.542L9.00001 121.458L7.00001 121.458ZM7.00001 129.625L7.00001 133.708L9.00001 133.708L9.00001 129.625L7.00001 129.625ZM7.00001 137.792L7.00001 141.875L9.00001 141.875L9.00001 137.792L7.00001 137.792ZM7.00001 145.958L7.00001 148L9.00001 148L9.00001 145.958L7.00001 145.958Z" fill="#012D46"/>
            </svg>