<?xml version="1.0" encoding="utf-8"?>
<!-- Generator: Adobe Illustrator 23.0.2, SVG Export Plug-In . SVG Version: 6.00 Build 0)  -->
<svg version="1.1" id="Layer_1" xmlns="http://www.w3.org/2000/svg" xmlns:xlink="http://www.w3.org/1999/xlink" x="0px" y="0px"
	 viewBox="0 0 50 50" style="enable-background:new 0 0 50 50;" xml:space="preserve">
<style type="text/css">
	.st0{clip-path:url(#SVGID_2_);}
	.st1{fill:#E5D4A3;}
	.st2{fill:#6C4327;}
</style>
<g>
	<g>
		<defs>
			<rect id="SVGID_1_" y="0" width="50" height="50"/>
		</defs>
		<clipPath id="SVGID_2_">
			<use xlink:href="#SVGID_1_"  style="overflow:visible;"/>
		</clipPath>
		<g id="civil-engineering" class="st0">
			<g id="Group_2" transform="translate(-1.421)">
				<g id="information-technology" transform="translate(-3 1.843)">
					<path id="Path_1" class="st1" d="M42.6,0.5C39,0,35.4,0,31.8,0.5l-9.4,1.2V17c0,9,7.5,14.6,14.8,16.1c8.5-2,14.8-7.2,14.8-16.2
						V1.6L42.6,0.5z"/>
				</g>
			</g>
		</g>
	</g>
</g>
<g>
	<path class="st2" d="M40.7,33.8c-0.5,0-0.9,0.4-0.9,0.9v11.5c0,0.5-0.4,0.9-0.9,0.9H7.1c-0.5,0-0.9-0.4-0.9-0.9V34.7
		c0-0.5-0.4-0.9-0.9-0.9s-0.9,0.4-0.9,0.9v11.5c0,1.5,1.2,2.7,2.7,2.7h31.9c1.5,0,2.7-1.2,2.7-2.7V34.7
		C41.6,34.1,41.3,33.8,40.7,33.8z"/>
	<path class="st2" d="M39.8,21.4H6.2c-1.5,0-2.7,1.2-2.7,2.7v5.7c0,1.2,0.9,2.3,2,2.6l13.9,3.1v2.8c0,0.5,0.4,0.9,0.9,0.9h5.3
		c0.5,0,0.9-0.4,0.9-0.9v-2.8l13.9-3.1c1.2-0.3,2-1.3,2-2.6V24C42.5,22.5,41.3,21.4,39.8,21.4z M24.8,37.3h-3.5v-3.5h3.5V37.3z
		 M40.7,29.7c0,0.4-0.3,0.8-0.7,0.9l-13.5,3v-0.7c0-0.5-0.4-0.9-0.9-0.9h-5.3c-0.5,0-0.9,0.4-0.9,0.9v0.7L6,30.6
		c-0.4-0.1-0.7-0.4-0.7-0.9V24c0-0.5,0.4-0.9,0.9-0.9h33.7c0.5,0,0.9,0.4,0.9,0.9V29.7L40.7,29.7z M27.4,15.2h-8.9
		c-1.5,0-2.7,1.2-2.7,2.7v0.9c0,0.5,0.4,0.9,0.9,0.9s0.9-0.4,0.9-0.9v-0.9c0-0.5,0.4-0.9,0.9-0.9h8.9c0.5,0,0.9,0.4,0.9,0.9v0.9
		c0,0.5,0.4,0.9,0.9,0.9c0.5,0,0.9-0.4,0.9-0.9v-0.9C30.1,16.3,28.9,15.2,27.4,15.2L27.4,15.2z"/>
</g>
</svg>
